<svg width="200" height="24" viewBox="0 0 200 24" fill="none" xmlns="http://www.w3.org/2000/svg">
<g clip-path="url(#clip0_70584_553)">
<path d="M22 6C22 4.9 21.1 4 20 4H4C2.9 4 2 4.9 2 6V18C2 19.1 2.9 20 4 20H20C21.1 20 22 19.1 22 18V6ZM20 6L12 10.99L4 6H20ZM20 18H4V8L12 13L20 8V18Z" fill="url(#paint0_linear_70584_553)"/>
</g>
<path d="M34.688 12.416C34.688 11.328 34.9333 10.352 35.424 9.488C35.9147 8.61333 36.5813 7.93067 37.424 7.44C38.2773 6.94933 39.2213 6.704 40.256 6.704C41.472 6.704 42.5333 6.99733 43.44 7.584C44.3467 8.17067 45.008 9.00267 45.424 10.08H43.68C43.3707 9.408 42.9227 8.89067 42.336 8.528C41.76 8.16533 41.0667 7.984 40.256 7.984C39.4773 7.984 38.7787 8.16533 38.16 8.528C37.5413 8.89067 37.056 9.408 36.704 10.08C36.352 10.7413 36.176 11.52 36.176 12.416C36.176 13.3013 36.352 14.08 36.704 14.752C37.056 15.4133 37.5413 15.9253 38.16 16.288C38.7787 16.6507 39.4773 16.832 40.256 16.832C41.0667 16.832 41.76 16.656 42.336 16.304C42.9227 15.9413 43.3707 15.424 43.68 14.752H45.424C45.008 15.8187 44.3467 16.6453 43.44 17.232C42.5333 17.808 41.472 18.096 40.256 18.096C39.2213 18.096 38.2773 17.856 37.424 17.376C36.5813 16.8853 35.9147 16.208 35.424 15.344C34.9333 14.48 34.688 13.504 34.688 12.416ZM47.0474 13.584C47.0474 12.688 47.2287 11.904 47.5914 11.232C47.954 10.5493 48.45 10.0213 49.0794 9.648C49.7194 9.27467 50.4287 9.088 51.2074 9.088C51.9754 9.088 52.642 9.25333 53.2074 9.584C53.7727 9.91467 54.194 10.3307 54.4714 10.832V9.232H55.9434V18H54.4714V16.368C54.1834 16.88 53.7514 17.3067 53.1754 17.648C52.61 17.9787 51.9487 18.144 51.1914 18.144C50.4127 18.144 49.7087 17.952 49.0794 17.568C48.45 17.184 47.954 16.6453 47.5914 15.952C47.2287 15.2587 47.0474 14.4693 47.0474 13.584ZM54.4714 13.6C54.4714 12.9387 54.338 12.3627 54.0714 11.872C53.8047 11.3813 53.442 11.008 52.9834 10.752C52.5354 10.4853 52.0394 10.352 51.4954 10.352C50.9514 10.352 50.4554 10.48 50.0074 10.736C49.5594 10.992 49.202 11.3653 48.9354 11.856C48.6687 12.3467 48.5354 12.9227 48.5354 13.584C48.5354 14.256 48.6687 14.8427 48.9354 15.344C49.202 15.8347 49.5594 16.2133 50.0074 16.48C50.4554 16.736 50.9514 16.864 51.4954 16.864C52.0394 16.864 52.5354 16.736 52.9834 16.48C53.442 16.2133 53.8047 15.8347 54.0714 15.344C54.338 14.8427 54.4714 14.2613 54.4714 13.6ZM57.8599 13.584C57.8599 12.688 58.0412 11.904 58.4039 11.232C58.7665 10.5493 59.2625 10.0213 59.8919 9.648C60.5319 9.27467 61.2465 9.088 62.0359 9.088C62.7185 9.088 63.3532 9.248 63.9399 9.568C64.5265 9.87733 64.9745 10.288 65.2839 10.8V6.16H66.7559V18H65.2839V16.352C64.9959 16.8747 64.5692 17.3067 64.0039 17.648C63.4385 17.9787 62.7772 18.144 62.0199 18.144C61.2412 18.144 60.5319 17.952 59.8919 17.568C59.2625 17.184 58.7665 16.6453 58.4039 15.952C58.0412 15.2587 57.8599 14.4693 57.8599 13.584ZM65.2839 13.6C65.2839 12.9387 65.1505 12.3627 64.8839 11.872C64.6172 11.3813 64.2545 11.008 63.7959 10.752C63.3479 10.4853 62.8519 10.352 62.3079 10.352C61.7639 10.352 61.2679 10.48 60.8199 10.736C60.3719 10.992 60.0145 11.3653 59.7479 11.856C59.4812 12.3467 59.3479 12.9227 59.3479 13.584C59.3479 14.256 59.4812 14.8427 59.7479 15.344C60.0145 15.8347 60.3719 16.2133 60.8199 16.48C61.2679 16.736 61.7639 16.864 62.3079 16.864C62.8519 16.864 63.3479 16.736 63.7959 16.48C64.2545 16.2133 64.6172 15.8347 64.8839 15.344C65.1505 14.8427 65.2839 14.2613 65.2839 13.6ZM68.6724 13.584C68.6724 12.688 68.8537 11.904 69.2164 11.232C69.579 10.5493 70.075 10.0213 70.7044 9.648C71.3444 9.27467 72.0537 9.088 72.8324 9.088C73.6004 9.088 74.267 9.25333 74.8324 9.584C75.3977 9.91467 75.819 10.3307 76.0964 10.832V9.232H77.5684V18H76.0964V16.368C75.8084 16.88 75.3764 17.3067 74.8004 17.648C74.235 17.9787 73.5737 18.144 72.8164 18.144C72.0377 18.144 71.3337 17.952 70.7044 17.568C70.075 17.184 69.579 16.6453 69.2164 15.952C68.8537 15.2587 68.6724 14.4693 68.6724 13.584ZM76.0964 13.6C76.0964 12.9387 75.963 12.3627 75.6964 11.872C75.4297 11.3813 75.067 11.008 74.6084 10.752C74.1604 10.4853 73.6644 10.352 73.1204 10.352C72.5764 10.352 72.0804 10.48 71.6324 10.736C71.1844 10.992 70.827 11.3653 70.5604 11.856C70.2937 12.3467 70.1604 12.9227 70.1604 13.584C70.1604 14.256 70.2937 14.8427 70.5604 15.344C70.827 15.8347 71.1844 16.2133 71.6324 16.48C72.0804 16.736 72.5764 16.864 73.1204 16.864C73.6644 16.864 74.1604 16.736 74.6084 16.48C75.067 16.2133 75.4297 15.8347 75.6964 15.344C75.963 14.8427 76.0964 14.2613 76.0964 13.6ZM83.1329 18.144C82.4609 18.144 81.8582 18.032 81.3249 17.808C80.7915 17.5733 80.3702 17.2533 80.0609 16.848C79.7515 16.432 79.5809 15.9573 79.5489 15.424H81.0529C81.0955 15.8613 81.2982 16.2187 81.6609 16.496C82.0342 16.7733 82.5195 16.912 83.1169 16.912C83.6715 16.912 84.1089 16.7893 84.4289 16.544C84.7489 16.2987 84.9089 15.9893 84.9089 15.616C84.9089 15.232 84.7382 14.9493 84.3969 14.768C84.0555 14.576 83.5275 14.3893 82.8129 14.208C82.1622 14.0373 81.6289 13.8667 81.2129 13.696C80.8075 13.5147 80.4555 13.2533 80.1569 12.912C79.8689 12.56 79.7249 12.1013 79.7249 11.536C79.7249 11.088 79.8582 10.6773 80.1249 10.304C80.3915 9.93067 80.7702 9.63733 81.2609 9.424C81.7515 9.2 82.3115 9.088 82.9409 9.088C83.9115 9.088 84.6955 9.33333 85.2929 9.824C85.8902 10.3147 86.2102 10.9867 86.2529 11.84H84.7969C84.7649 11.3813 84.5782 11.0133 84.2369 10.736C83.9062 10.4587 83.4582 10.32 82.8929 10.32C82.3702 10.32 81.9542 10.432 81.6449 10.656C81.3355 10.88 81.1809 11.1733 81.1809 11.536C81.1809 11.824 81.2715 12.064 81.4529 12.256C81.6449 12.4373 81.8795 12.5867 82.1569 12.704C82.4449 12.8107 82.8395 12.9333 83.3409 13.072C83.9702 13.2427 84.4822 13.4133 84.8769 13.584C85.2715 13.744 85.6075 13.9893 85.8849 14.32C86.1729 14.6507 86.3222 15.0827 86.3329 15.616C86.3329 16.096 86.1995 16.528 85.9329 16.912C85.6662 17.296 85.2875 17.6 84.7969 17.824C84.3169 18.0373 83.7622 18.144 83.1329 18.144ZM90.1643 10.432V15.6C90.1643 16.0267 90.2549 16.3307 90.4363 16.512C90.6176 16.6827 90.9323 16.768 91.3802 16.768H92.4523V18H91.1403C90.3296 18 89.7216 17.8133 89.3163 17.44C88.9109 17.0667 88.7083 16.4533 88.7083 15.6V10.432H87.5723V9.232H88.7083V7.024H90.1643V9.232H92.4523V10.432H90.1643ZM95.6724 10.656C95.9284 10.1547 96.291 9.76533 96.7604 9.488C97.2404 9.21067 97.8217 9.072 98.5044 9.072V10.576H98.1204C96.4884 10.576 95.6724 11.4613 95.6724 13.232V18H94.2164V9.232H95.6724V10.656ZM108.185 13.28C108.185 13.5573 108.169 13.8507 108.137 14.16H101.129C101.182 15.024 101.476 15.7013 102.009 16.192C102.553 16.672 103.209 16.912 103.977 16.912C104.606 16.912 105.129 16.768 105.545 16.48C105.972 16.1813 106.27 15.7867 106.441 15.296H108.009C107.774 16.1387 107.305 16.8267 106.601 17.36C105.897 17.8827 105.022 18.144 103.977 18.144C103.145 18.144 102.398 17.9573 101.737 17.584C101.086 17.2107 100.574 16.6827 100.201 16C99.8278 15.3067 99.6411 14.5067 99.6411 13.6C99.6411 12.6933 99.8225 11.8987 100.185 11.216C100.548 10.5333 101.054 10.0107 101.705 9.648C102.366 9.27467 103.124 9.088 103.977 9.088C104.809 9.088 105.545 9.26933 106.185 9.632C106.825 9.99467 107.316 10.496 107.657 11.136C108.009 11.7653 108.185 12.48 108.185 13.28ZM106.681 12.976C106.681 12.4213 106.558 11.9467 106.313 11.552C106.068 11.1467 105.732 10.8427 105.305 10.64C104.889 10.4267 104.425 10.32 103.913 10.32C103.177 10.32 102.548 10.5547 102.025 11.024C101.513 11.4933 101.22 12.144 101.145 12.976H106.681ZM117.477 18.144C116.805 18.144 116.202 18.032 115.669 17.808C115.135 17.5733 114.714 17.2533 114.405 16.848C114.095 16.432 113.925 15.9573 113.893 15.424H115.397C115.439 15.8613 115.642 16.2187 116.005 16.496C116.378 16.7733 116.863 16.912 117.461 16.912C118.015 16.912 118.453 16.7893 118.773 16.544C119.093 16.2987 119.253 15.9893 119.253 15.616C119.253 15.232 119.082 14.9493 118.741 14.768C118.399 14.576 117.871 14.3893 117.157 14.208C116.506 14.0373 115.973 13.8667 115.557 13.696C115.151 13.5147 114.799 13.2533 114.501 12.912C114.213 12.56 114.069 12.1013 114.069 11.536C114.069 11.088 114.202 10.6773 114.469 10.304C114.735 9.93067 115.114 9.63733 115.605 9.424C116.095 9.2 116.655 9.088 117.285 9.088C118.255 9.088 119.039 9.33333 119.637 9.824C120.234 10.3147 120.554 10.9867 120.597 11.84H119.141C119.109 11.3813 118.922 11.0133 118.581 10.736C118.25 10.4587 117.802 10.32 117.237 10.32C116.714 10.32 116.298 10.432 115.989 10.656C115.679 10.88 115.525 11.1733 115.525 11.536C115.525 11.824 115.615 12.064 115.797 12.256C115.989 12.4373 116.223 12.5867 116.501 12.704C116.789 12.8107 117.183 12.9333 117.685 13.072C118.314 13.2427 118.826 13.4133 119.221 13.584C119.615 13.744 119.951 13.9893 120.229 14.32C120.517 14.6507 120.666 15.0827 120.677 15.616C120.677 16.096 120.543 16.528 120.277 16.912C120.01 17.296 119.631 17.6 119.141 17.824C118.661 18.0373 118.106 18.144 117.477 18.144ZM130.732 13.28C130.732 13.5573 130.716 13.8507 130.684 14.16H123.676C123.729 15.024 124.023 15.7013 124.556 16.192C125.1 16.672 125.756 16.912 126.524 16.912C127.153 16.912 127.676 16.768 128.092 16.48C128.519 16.1813 128.817 15.7867 128.988 15.296H130.556C130.321 16.1387 129.852 16.8267 129.148 17.36C128.444 17.8827 127.569 18.144 126.524 18.144C125.692 18.144 124.945 17.9573 124.284 17.584C123.633 17.2107 123.121 16.6827 122.748 16C122.375 15.3067 122.188 14.5067 122.188 13.6C122.188 12.6933 122.369 11.8987 122.732 11.216C123.095 10.5333 123.601 10.0107 124.252 9.648C124.913 9.27467 125.671 9.088 126.524 9.088C127.356 9.088 128.092 9.26933 128.732 9.632C129.372 9.99467 129.863 10.496 130.204 11.136C130.556 11.7653 130.732 12.48 130.732 13.28ZM129.228 12.976C129.228 12.4213 129.105 11.9467 128.86 11.552C128.615 11.1467 128.279 10.8427 127.852 10.64C127.436 10.4267 126.972 10.32 126.46 10.32C125.724 10.32 125.095 10.5547 124.572 11.024C124.06 11.4933 123.767 12.144 123.692 12.976H129.228ZM140.43 9.232V18H138.974V16.704C138.697 17.152 138.307 17.504 137.806 17.76C137.315 18.0053 136.771 18.128 136.174 18.128C135.491 18.128 134.878 17.9893 134.334 17.712C133.79 17.424 133.358 16.9973 133.038 16.432C132.729 15.8667 132.574 15.1787 132.574 14.368V9.232H134.014V14.176C134.014 15.04 134.233 15.7067 134.67 16.176C135.107 16.6347 135.705 16.864 136.462 16.864C137.241 16.864 137.854 16.624 138.302 16.144C138.75 15.664 138.974 14.9653 138.974 14.048V9.232H140.43ZM155.154 13.28C155.154 13.5573 155.138 13.8507 155.106 14.16H148.098C148.151 15.024 148.445 15.7013 148.978 16.192C149.522 16.672 150.178 16.912 150.946 16.912C151.575 16.912 152.098 16.768 152.514 16.48C152.941 16.1813 153.239 15.7867 153.41 15.296H154.978C154.743 16.1387 154.274 16.8267 153.57 17.36C152.866 17.8827 151.991 18.144 150.946 18.144C150.114 18.144 149.367 17.9573 148.706 17.584C148.055 17.2107 147.543 16.6827 147.17 16C146.797 15.3067 146.61 14.5067 146.61 13.6C146.61 12.6933 146.791 11.8987 147.154 11.216C147.517 10.5333 148.023 10.0107 148.674 9.648C149.335 9.27467 150.093 9.088 150.946 9.088C151.778 9.088 152.514 9.26933 153.154 9.632C153.794 9.99467 154.285 10.496 154.626 11.136C154.978 11.7653 155.154 12.48 155.154 13.28ZM153.65 12.976C153.65 12.4213 153.527 11.9467 153.282 11.552C153.037 11.1467 152.701 10.8427 152.274 10.64C151.858 10.4267 151.394 10.32 150.882 10.32C150.146 10.32 149.517 10.5547 148.994 11.024C148.482 11.4933 148.189 12.144 148.114 12.976H153.65ZM163.156 11.52V12.752H156.772V11.52H163.156ZM176.432 9.072C177.115 9.072 177.723 9.216 178.256 9.504C178.79 9.78133 179.211 10.2027 179.52 10.768C179.83 11.3333 179.984 12.0213 179.984 12.832V18H178.544V13.04C178.544 12.1653 178.326 11.4987 177.888 11.04C177.462 10.5707 176.88 10.336 176.144 10.336C175.387 10.336 174.784 10.5813 174.336 11.072C173.888 11.552 173.664 12.2507 173.664 13.168V18H172.224V13.04C172.224 12.1653 172.006 11.4987 171.568 11.04C171.142 10.5707 170.56 10.336 169.824 10.336C169.067 10.336 168.464 10.5813 168.016 11.072C167.568 11.552 167.344 12.2507 167.344 13.168V18H165.888V9.232H167.344V10.496C167.632 10.0373 168.016 9.68533 168.496 9.44C168.987 9.19467 169.526 9.072 170.112 9.072C170.848 9.072 171.499 9.23733 172.064 9.568C172.63 9.89867 173.051 10.384 173.328 11.024C173.574 10.4053 173.979 9.92533 174.544 9.584C175.11 9.24267 175.739 9.072 176.432 9.072ZM181.829 13.584C181.829 12.688 182.01 11.904 182.373 11.232C182.735 10.5493 183.231 10.0213 183.861 9.648C184.501 9.27467 185.21 9.088 185.989 9.088C186.757 9.088 187.423 9.25333 187.989 9.584C188.554 9.91467 188.975 10.3307 189.253 10.832V9.232H190.725V18H189.253V16.368C188.965 16.88 188.533 17.3067 187.957 17.648C187.391 17.9787 186.73 18.144 185.973 18.144C185.194 18.144 184.49 17.952 183.861 17.568C183.231 17.184 182.735 16.6453 182.373 15.952C182.01 15.2587 181.829 14.4693 181.829 13.584ZM189.253 13.6C189.253 12.9387 189.119 12.3627 188.853 11.872C188.586 11.3813 188.223 11.008 187.765 10.752C187.317 10.4853 186.821 10.352 186.277 10.352C185.733 10.352 185.237 10.48 184.789 10.736C184.341 10.992 183.983 11.3653 183.717 11.856C183.45 12.3467 183.317 12.9227 183.317 13.584C183.317 14.256 183.45 14.8427 183.717 15.344C183.983 15.8347 184.341 16.2133 184.789 16.48C185.237 16.736 185.733 16.864 186.277 16.864C186.821 16.864 187.317 16.736 187.765 16.48C188.223 16.2133 188.586 15.8347 188.853 15.344C189.119 14.8427 189.253 14.2613 189.253 13.6ZM193.937 7.808C193.66 7.808 193.425 7.712 193.233 7.52C193.041 7.328 192.945 7.09333 192.945 6.816C192.945 6.53867 193.041 6.304 193.233 6.112C193.425 5.92 193.66 5.824 193.937 5.824C194.204 5.824 194.428 5.92 194.609 6.112C194.801 6.304 194.897 6.53867 194.897 6.816C194.897 7.09333 194.801 7.328 194.609 7.52C194.428 7.712 194.204 7.808 193.937 7.808ZM194.641 9.232V18H193.185V9.232H194.641ZM198.579 6.16V18H197.123V6.16H198.579Z" fill="url(#paint1_linear_70584_553)"/>
<defs>
<linearGradient id="paint0_linear_70584_553" x1="10.3565" y1="2.07999" x2="38.9873" y2="6.8188" gradientUnits="userSpaceOnUse">
<stop stop-color="#002F52"/>
<stop offset="1" stop-color="#326589"/>
</linearGradient>
<linearGradient id="paint1_linear_70584_553" x1="103.359" y1="-2.88001" x2="236.135" y2="118.723" gradientUnits="userSpaceOnUse">
<stop stop-color="#002F52"/>
<stop offset="1" stop-color="#326589"/>
</linearGradient>
<clipPath id="clip0_70584_553">
<rect width="24" height="24" fill="white"/>
</clipPath>
</defs>
</svg>
